#!OML:ASF F:\VICON\USERDATA\INSTALL\rory3\rory3.ASF
:FULLY-SPECIFIED
:DEGREES
131
root 0.544994 16.6051 -17.5446 10.0105 0.294335 1.15269
lowerback -3.52821 2.42027 -2.7087
upperback -3.63139 3.25785 -2.50566
thorax -1.76182 1.65987 -0.996185
lowerneck -17.0718 -2.13192 -3.07329
upperneck 35.8715 -2.19786 0.413989
head 15.5333 -1.26847 0.327197
rclavicle 2.13694e-014 -2.14687e-014
rhumerus -39.7842 -15.0106 -74.0037
rradius 24.3203
rwrist -6.32029
rhand -5.19714 11.8361
rfingers 7.12502
rthumb 20.604 -17.0904
lclavicle 2.13694e-014 -2.14687e-014
lhumerus -46.9859 31.2057 56.442
lradius 28.2914
lwrist -2.9962
lhand -1.2754 21.3824
lfingers 7.12502
lthumb 24.3682 49.8531
rfemur -0.655601 7.53838 23.88
rtibia 35.4337
rfoot 2.90094 -17.6509
rtoes -4.89092
lfemur -34.1024 -8.67457 -21.5071
ltibia 30.9275
lfoot -14.638 19.9285
ltoes -5.20328
132
root 0.561769 16.6258 -17.4118 10.2987 0.494745 1.26031
lowerback -3.68679 2.39887 -2.95463
upperback -3.78404 3.23601 -2.536
thorax -1.84345 1.65557 -0.888819
lowerneck -16.5466 -2.24208 -3.233
upperneck 35.7226 -2.38787 0.576906
head 15.3469 -1.34818 0.396074
rclavicle 2.50344e-014 -3.02153e-014
rhumerus -40.412 -15.8654 -73.3765
rradius 23.889
rwrist -5.83183
rhand -4.72515 12.2578
rfingers 7.12502
rthumb 21.0575 -16.6189
lclavicle 2.50344e-014 -3.02153e-014
lhumerus -46.3639 32.7065 55.7819
lradius 27.0993
lwrist -5.07507
lhand -1.07069 21.122
lfingers 7.12502
lthumb 24.5645 49.5661
rfemur -2.5747 6.73743 23.5384
rtibia 38.1382
rfoot 5.52234 -17.6012
rtoes -0.0423832
lfemur -33.8221 -8.63456 -21.7791
ltibia 30.7883
lfoot -14.8081 19.6163
ltoes -5.57078
133
root 0.581532 16.6484 -17.2712 10.5055 0.427866 1.32462
lowerback -3.81195 2.5226 -3.0992
upperback -3.92074 3.4041 -2.63824
thorax -1.9189 1.74325 -0.909195
lowerneck -16.2579 -2.36861 -3.33065
upperneck 35.7753 -2.65092 0.832273
head 15.3177 -1.43676 0.477624
rclavicle 3.87879e-014 -3.97569e-014
rhumerus -41.0834 -16.5714 -72.9804
rradius 23.7585
rwrist -5.69214
rhand -4.24392 11.8868
rfingers 7.12502
rthumb 21.5197 -16.9378
lclavicle 3.87879e-014 -3.97569e-014
lhumerus -45.219 31.6222 57.3079
lradius 27.8334
lwrist -4.17334
lhand -0.887501 21.9154
lfingers 7.12502
lthumb 24.74 50.3356
rfemur -4.38012 6.13354 23.2115
rtibia 40.8194
rfoot 6.48317 -18.0528
rtoes -2.12803
lfemur -33.3869 -8.79537 -21.9262
ltibia 30.6308
lfoot -15.3264 19.7512
ltoes -6.14846
134
root 0.607312 16.6658 -17.1106 10.3842 0.0399449 1.27299
lowerback -3.42478 2.65542 -3.03817
upperback -4.15674 3.55119 -2.72135
thorax -2.37181 1.81885 -1.05528
lowerneck -16.3541 -2.41326 -3.45315
upperneck 36.1866 -2.81302 1.18502
head 15.5552 -1.47252 0.618882
rclavicle 3.4514e-014 -5.08889e-014
rhumerus -41.8794 -16.6296 -72.8946
rradius 23.7313
rwrist -5.7977
rhand -3.70957 11.1167
rfingers 7.12502
rthumb 22.0328 -17.6482
lclavicle 3.4514e-014 -5.08889e-014
lhumerus -44.7023 31.267 57.7847
lradius 28.1357
lwrist -3.79856
lhand -0.578319 22.4363
lfingers 7.12502
lthumb 25.0363 50.8154
rfemur -5.69951 5.75314 22.9575
rtibia 43.2901
rfoot 6.01604 -17.7352
rtoes -6.42052
lfemur -32.5313 -8.61319 -22.094
ltibia 30.5748
lfoot -15.838 19.9301
ltoes -7.87887
135
root 0.619884 16.6802 -16.9857 10.7055 0.441076 1.32642
lowerback -3.76629 2.71531 -3.07885
upperback -4.4835 3.63392 -2.91864
thorax -2.51023 1.86179 -1.2286
lowerneck -14.8191 -2.66361 -3.35389
upperneck 35.7951 -3.40626 1.54603
head 15.0276 -1.66774 0.667244
rclavicle 3.77442e-014 -1.11319e-014
rhumerus -43.0977 -17.2296 -72.5772
rradius 23.7811
rwrist -5.86116
rhand -3.33754 10.4257
rfingers 7.12502
rthumb 22.39 -18.2968
lclavicle 3.77442e-014 -1.11319e-014
lhumerus -44.2868 31.0193 57.7001
lradius 27.9425
lwrist -5.14176
lhand 0.788067 20.6725
lfingers 7.12502
lthumb 26.345 48.8626
rfemur -7.61441 4.73273 22.7853
rtibia 45.6538
rfoot 4.46742 -17.5358
rtoes -14.5747
lfemur -32.4187 -8.4059 -22.3261
ltibia 30.5732
lfoot -15.3267 19.5906
ltoes -10.863
136
root 0.649809 16.6935 -16.8346 10.6159 0.0282374 1.00723
lowerback -3.9867 2.54487 -3.1006
upperback -3.98015 3.44193 -2.42486
thorax -1.89605 1.76515 -0.682204
lowerneck -16.1082 -2.50125 -3.84537
upperneck 35.987 -2.9518 1.51732
head 15.42 -1.54017 0.806104
rclavicle -1.39522e-014 1.98785e-014
rhumerus -42.0246 -16.2924 -72.9091
rradius 23.6711
rwrist -5.87072
rhand -2.84718 9.71441
rfingers 7.12502
rthumb 22.8606 -18.9506
lclavicle -1.39522e-014 1.98785e-014
lhumerus -43.2687 32.0904 59.0411
lradius 28.7675
lwrist -4.58199
lhand 0.671104 21.7951
lfingers 7.12502
lthumb 26.233 50.0019
rfemur -8.99284 4.30368 22.7864
rtibia 47.7558
rfoot 3.38025 -16.6162
rtoes -16.9725
lfemur -31.6942 -8.2428 -22.1896
ltibia 30.5822
lfoot -16.0607 19.628
ltoes -9.25571
137
root 0.671784 16.7064 -16.6994 10.8097 -0.166092 0.834656
lowerback -4.01571 2.67171 -2.92133
upperback -4.33156 3.59583 -2.46711
thorax -2.23117 1.84227 -0.83345
lowerneck -15.0456 -2.51103 -3.74574
upperneck 35.8413 -3.10053 1.68147
head 15.105 -1.57278 0.842539
rclavicle -3.89494e-015 2.62396e-014
rhumerus -42.9334 -16.1115 -72.896
rradius 23.6984
rwrist -5.88012
rhand -2.25143 9.6258
rfingers 7.12502
rthumb 23.4322 -18.9675
lclavicle -3.89494e-015 2.62396e-014
lhumerus -42.8545 31.269 59.6607
lradius 29.2541
lwrist -4.31033
lhand 0.934301 22.4566
lfingers 7.12502
lthumb 26.485 50.6257
rfemur -10.8042 3.6262 22.6798
rtibia 49.7995
rfoot 3.20822 -15.9725
rtoes -15.6714
lfemur -31.3388 -8.01628 -22.1674
ltibia 30.5479
lfoot -16.786 19.3111
ltoes -6.59325
138
root 0.695472 16.7221 -16.5546 10.8137 -0.385716 1.01982
lowerback -3.81192 2.6114 -3.13671
upperback -4.22643 3.51272 -2.52658
thorax -2.24555 1.80455 -0.783494
lowerneck -16.0049 -2.4714 -3.54196
upperneck 36.189 -3.07131 1.64947
head 15.4932 -1.53184 0.78927
rclavicle -6.21202e-015 9.54166e-015
rhumerus -42.6679 -16.0191 -73.1379
rradius 23.3464
rwrist -5.45354
rhand -1.6706 10.0609
rfingers 7.12502
rthumb 23.9893 -18.4602
lclavicle -6.21202e-015 9.54166e-015
lhumerus -41.9197 31.4042 60.2705
lradius 29.6744
lwrist -4.19094
lhand 1.53895 22.2571
lfingers 7.12502
lthumb 27.0636 50.3376
rfemur -12.3305 2.90782 22.1697
rtibia 51.6311
rfoot 4.23629 -15.17
rtoes -10.3075
lfemur -30.6897 -7.84666 -22.5987
ltibia 30.4907
lfoot -17.2911 19.3928
ltoes -7.0444
139
root 0.714579 16.7368 -16.4209 11.0375 -0.439718 1.13519
lowerback -4.22657 2.67012 -3.3527
upperback -4.36934 3.61074 -2.54727
thorax -2.17606 1.85956 -0.666939
lowerneck -15.0023 -2.57211 -3.58366
upperneck 35.9976 -3.29648 1.79505
head 15.1755 -1.619 0.828855
rclavicle -3.33958e-014 -2.54444e-014
rhumerus -43.265 -15.843 -73.0846
rradius 23.3724
rwrist -5.50387
rhand -1.09669 10.0601
rfingers 7.12502
rthumb 24.5395 -18.3874
lclavicle -3.33958e-014 -2.54444e-014
lhumerus -41.3123 30.5161 61.2043
lradius 30.3647
lwrist -3.7019
lhand 2.15064 21.983
lfingers 7.12502
lthumb 27.6486 49.9712
rfemur -14.0666 2.29714 21.8553
rtibia 53.2954
rfoot 3.4631 -14.654
rtoes -12.0189
lfemur -30.3103 -7.92657 -22.8196
ltibia 30.3931
lfoot -17.836 19.3811
ltoes -7.0172
140
root 0.732194 16.747 -16.29 11.1221 -0.784383 1.16364
lowerback -4.3749 2.76173 -3.5665
upperback -4.38762 3.74551 -2.48391
thorax -2.13307 1.93317 -0.473928
lowerneck -14.6283 -2.5726 -3.48292
upperneck 36.0178 -3.30327 1.69057
head 15.0927 -1.62521 0.770487
rclavicle -4.22417e-015 -7.95139e-016
rhumerus -43.5453 -15.4897 -73.2022
rradius 23.6648
rwrist -5.56699
rhand -0.50041 9.35981
rfingers 7.12502
rthumb 25.111 -19.0089
lclavicle -4.22417e-015 -7.95139e-016
lhumerus -40.7122 29.949 62.1379
lradius 31.275
lwrist -3.33676
lhand 2.63131 21.8549
lfingers 7.12502
lthumb 28.1082 49.7685
rfemur -15.6266 2.11296 21.6502
rtibia 54.7296
rfoot 1.95123 -14.3524
rtoes -14.603
lfemur -29.7642 -7.93246 -22.9543
ltibia 30.2546
lfoot -18.4719 19.5493
ltoes -6.92009
141
root 0.757459 16.7579 -16.1503 11.1807 -1.02233 1.00629
lowerback -4.66886 2.77178 -3.45573
upperback -4.17052 3.78043 -2.35026
thorax -1.74616 1.94385 -0.372377
lowerneck -14.9679 -2.4909 -3.35359
upperneck 36.1528 -3.15287 1.52912
head 15.2254 -1.56384 0.702187
rclavicle 2.41275e-014 -2.38542e-015
rhumerus -43.3606 -15.0605 -73.4308
rradius 23.907
rwrist -5.50549
rhand 0.137417 9.71941
rfingers 7.12502
rthumb 25.722 -18.5624
lclavicle 2.41275e-014 -2.38542e-015
lhumerus -39.8034 29.6755 63.0967
lradius 32.0437
lwrist -2.92181
lhand 2.89827 21.4643
lfingers 7.12502
lthumb 28.3633 49.3357
rfemur -17.0337 1.7886 21.636
rtibia 55.9821
rfoot 1.28264 -13.7389
rtoes -16.1976
lfemur -29.2388 -8.12313 -22.9086
ltibia 30.2577
lfoot -19.1411 19.8706
ltoes -6.30872
142
root 0.793365 16.7643 -16.0086 11.3 -0.901481 1.14498
lowerback -4.72733 2.56241 -3.36436
upperback -4.14479 3.503 -2.29458
thorax -1.67902 1.8027 -0.369069
lowerneck -15.7796 -2.28046 -3.13507
upperneck 36.8291 -2.7209 1.08598
head 15.7233 -1.4098 0.543439
rclavicle 3.64024e-015 -8.74653e-015
rhumerus -43.2506 -14.1607 -73.8125
rradius 24.0337
rwrist -5.6196
rhand 0.640078 11.4325
rfingers 7.12502
rthumb 26.2033 -16.7787
lclavicle 3.64024e-015 -8.74653e-015
lhumerus -39.4108 30.1682 63.2381
lradius 32.3394
lwrist -3.53016
lhand 3.30067 19.9607
lfingers 7.12502
lthumb 28.7478 47.7675
rfemur -18.351 0.961499 21.2358
rtibia 57.0002
rfoot 1.23729 -13.74
rtoes -14.9584
lfemur -28.7653 -8.22579 -23.3163
ltibia 30.227
lfoot -19.2952 20.0105
ltoes -7.5417
143
root 0.795717 16.7615 -15.9049 11.7185 -1.33599 0.926436
lowerback -4.96068 2.77194 -3.4711
upperback -4.37025 3.7898 -2.21094
thorax -1.80116 1.95336 -0.21239
lowerneck -15.9128 -2.22307 -2.58233
upperneck 37.3981 -2.6268 0.592705
head 16.018 -1.35963 0.248504
rclavicle -6.62201e-015 2.06736e-014
rhumerus -43.7245 -13.9736 -73.8634
rradius 24.4345
rwrist -5.71175
rhand 0.787682 10.3001
rfingers 7.12502
rthumb 26.3446 -17.8901
lclavicle -6.62201e-015 2.06736e-014
lhumerus -38.8773 29.1516 64.0117
lradius 33.0286
lwrist -3.39288
lhand 3.46919 18.883
lfingers 7.12502
lthumb 28.9088 46.6624
rfemur -20.4351 1.2677 21.5044
rtibia 57.9467
rfoot 1.25914 -13.6732
rtoes -12.8881
lfemur -28.8588 -7.89058 -23.1048
ltibia 30.1868
lfoot -19.4548 20.1209
ltoes -7.64185
